<?xml version="1.0" encoding="utf-8"?>
<!DOCTYPE svg PUBLIC "-//W3C//DTD SVG 1.1//EN" "http://www.w3.org/Graphics/SVG/1.1/DTD/svg11.dtd">
<svg style="width:308px;height:308px;" version="1.1" id="图形" xmlns="http://www.w3.org/2000/svg" xmlns:xlink="http://www.w3.org/1999/xlink" x="0px" y="0px" width="1024px" height="1024px" viewBox="0 0 1024 1024" enable-background="new 0 0 1024 1024" xml:space="preserve">
  <path class="svgpath" data-index="path_0" fill="#eb4f38" d="M953.471688 16.394389c29.849842 0 54.133921 24.285103 54.133921 54.133921l0 882.94338c0 29.849842-24.285103 54.133921-54.133921 54.133921L70.528308 1007.605611c-29.849842 0-54.133921-24.285103-54.133921-54.133921L16.394387 70.52831c0-29.849842 24.284079-54.133921 54.133921-54.133921L953.471688 16.394389M953.471688 0.021489 70.528308 0.021489c-38.939871 0-70.50682 31.56695-70.50682 70.50682l0 882.94338c0 38.939871 31.56695 70.50682 70.50682 70.50682l882.94338 0c38.939871 0 70.50682-31.56695 70.50682-70.50682L1023.978509 70.52831C1023.978509 31.588439 992.411559 0.021489 953.471688 0.021489L953.471688 0.021489z" />
<path class="svgpath" data-index="path_1" fill="#eb4f38" d="M509.598298 883.189997c-4.53734 5.336542-8.138354 10.136871-10.806113 14.406105-34.951023-18.809391-61.763692-45.722344-80.43903-80.738859l0 98.148367-16.007579 0L402.345576 816.857243c-16.275685 34.616402-43.621497 63.065338-82.040505 85.34169-2.668783-3.869121-6.203282-8.404414-10.605545-13.606903 37.350676-21.276582 63.73151-46.222741 79.138408-74.837452l-76.337619 0 0-15.20633 89.844238 0 0-77.638241 16.007579 0 0 77.638241 88.443331 0 0 15.20633-74.737168 0C450.069507 843.905272 475.915152 867.049389 509.598298 883.189997zM329.310166 741.520417l11.405771-9.404184c14.407128 16.274662 27.745924 31.549553 40.019459 45.821605l-13.406335 11.206226C355.322609 773.003456 342.649985 757.127883 329.310166 741.520417zM439.76379 778.738064c14.007015-15.072277 26.346041-30.480198 37.018102-46.222741l14.407128 10.406001c-16.808828 20.944008-29.949103 36.417421-39.419801 46.422286L439.76379 778.738064z" />
<path class="svgpath" data-index="path_2" fill="#eb4f38" d="M514.601242 870.783433c14.139022-20.210297 24.3772-42.421158 30.715559-66.632583l-27.913746 0 0-13.606903 30.214139 0 0-71.234391 14.207583 0 0 71.234391 27.013237 0 0 13.606903-27.013237 0 0 18.409279 7.604188-5.202489c4.402263 5.336542 12.205996 15.874549 23.411199 31.616068l-12.005428 9.004071c-7.870248-13.205766-14.20656-23.211654-19.008936-30.014594l0 86.042655L547.61617 914.00584l0-79.839373c-6.80294 20.544919-15.474436 38.018895-26.012444 52.426023C519.736193 881.388978 517.402031 876.120998 514.601242 870.783433zM517.001919 737.919403l12.205996-4.201695c2.933819 7.604188 7.668657 21.211091 14.20656 40.819684l-14.007015 5.403057C523.138686 757.928109 519.003506 743.922117 517.001919 737.919403zM566.425561 775.336594c5.735631-14.807241 10.205433-29.014824 13.407358-42.61968l15.207353 4.402263c-4.002151 10.939143-9.071609 25.347295-15.207353 43.220361L566.425561 775.336594zM603.244118 822.160016l0-13.606903 90.24435 0c-1.335415 36.552497-2.4017 61.897745-3.201925 76.03779-1.335415 18.542308-9.471722 27.814486-24.410969 27.814486-7.739265 0-16.407692-0.199545-26.013467-0.600681-0.800225-6.269797-1.801019-11.805884-3.001357-16.607236 9.604752 1.466398 17.874089 2.200108 24.812105 2.200108 8.136308 0 12.606109-5.002944 13.406335-15.006785 0.933255-12.138458 1.733481-32.215726 2.4017-60.229756l-37.918611 0c-0.867764 43.956118-17.308201 74.436316-49.324382 91.444689-2.535753-4.002151-6.070252-8.203846-10.604522-12.606109 27.878954-13.538341 42.821271-39.818891 44.821835-78.838579L603.244118 822.161039zM590.237897 795.746436c16.808828-17.340947 28.213575-39.818891 34.217313-67.432809l15.608489 3.201925c-7.071046 30.2827-19.343557 55.161321-36.818557 74.636884C600.176247 802.817482 595.840498 799.349497 590.237897 795.746436zM712.898541 793.546328c-4.669346 2.535753-9.272177 5.803169-13.806447 9.804297-22.678512-19.875676-36.686551-47.888683-42.021046-84.041068l16.408715-2.4017C675.745363 747.323587 688.886661 772.870426 712.898541 793.546328z" />
<path class="svgpath" data-index="path_3" fill="#eb4f38" d="M702.265366 283.182594l-56.952106 0c-2.185782 0-3.965312 1.782599-3.965312 3.959172l0 239.975537c0 2.170432 1.779529 3.959172 3.965312 3.959172l56.952106 0c2.179642 0 3.983731-1.788739 3.983731-3.959172l0-239.975537C706.249097 284.965194 704.446032 283.182594 702.265366 283.182594zM535.831776 282.957467 332.820106 282.957467c-2.179642 0-3.940752 1.782599-3.940752 3.980661l0 240.178151c0 2.170432 1.76111 3.959172 3.940752 3.959172l56.67479 0c2.185782 0 3.965312-1.788739 3.965312-3.959172L393.460208 341.907067c0-2.170432 1.77339-3.953032 3.946892-3.953032l107.388822 0c30.979572 0 39.753399 24.775266 39.753399 40.421618l0 148.740626c0 2.170432 1.779529 3.959172 3.946892 3.959172l56.607252 0c2.173502 0 3.959172-1.788739 3.959172-3.959172L609.062638 356.230284c0-13.95892-1.64343-34.026978-19.254529-51.677986C571.391666 286.128693 554.587955 282.957467 535.831776 282.957467zM497.333974 380.211465l-56.840566 0c-2.185782 0-3.965312 1.77032-3.965312 3.953032l0 142.952806c0 2.170432 1.779529 3.959172 3.965312 3.959172l56.840566 0c2.148943 0 3.934612-1.788739 3.934612-3.959172L501.268586 384.164496C501.268586 381.980761 499.482917 380.211465 497.333974 380.211465z" />

</svg>
