<?xml version="1.0" encoding="utf-8"?>
<!DOCTYPE svg PUBLIC "-//W3C//DTD SVG 1.1//EN" "http://www.w3.org/Graphics/SVG/1.1/DTD/svg11.dtd">
<svg style="width:308px;height:308px;" version="1.1" id="图形" xmlns="http://www.w3.org/2000/svg" xmlns:xlink="http://www.w3.org/1999/xlink" x="0px" y="0px" width="1024px" height="1024px" viewBox="0 0 1024 1024" enable-background="new 0 0 1024 1024" xml:space="preserve">
  <path class="svgpath" data-index="path_0" fill="#272636" d="M512 0C229.205333 0 0 229.239467 0 512s229.239467 512 512 512c282.760533 0 512-229.239467 512-512S794.7264 0 512 0zM776.123733 873.301333c-54.9888-4.983467-156.535467-27.579733-157.457067-126.634667-0.341333-29.320533-13.277867-49.015467 0-64 15.6672-17.783467 35.396267-65.7408 42.666667-106.666667 2.8672-16.2816 42.052267-21.8112 42.666667-64 19.319467-21.026133-0.136533-59.016533 0-85.333333 0.273067-65.297067 7.2704-127.6928-21.333333-170.666667-84.650667-127.1808-253.883733-125.986133-341.333333 0-26.794667 38.6048-21.504 105.096533-21.333333 170.666667 0.068267 26.897067-22.7328 62.976 0 85.333333 0 42.3936 37.341867 40.823467 42.666667 64 9.557333 41.540267 21.2992 85.4016 42.666667 106.666667 20.8896 20.7872 0.273067 34.679467 0 64-0.955733 99.054933-102.5024 121.617067-157.457067 126.634667C136.567467 791.790933 64 660.548267 64 512 64 264.567467 264.533333 64 512 64c247.432533 0 448 200.567467 448 448C960 660.548267 887.3984 791.790933 776.123733 873.301333z" />

</svg>
