<?xml version="1.0" encoding="utf-8"?>
<!DOCTYPE svg PUBLIC "-//W3C//DTD SVG 1.1//EN" "http://www.w3.org/Graphics/SVG/1.1/DTD/svg11.dtd">
<svg style="width:308px;height:308px;" version="1.1" id="图形" xmlns="http://www.w3.org/2000/svg" xmlns:xlink="http://www.w3.org/1999/xlink" x="0px" y="0px" width="1024px" height="1024px" viewBox="0 0 1024 1024" enable-background="new 0 0 1024 1024" xml:space="preserve">
  <path class="svgpath" data-index="path_0" fill="#272636" d="M908.3456 194.4512C796.82048 83.97568 618.5664 81.66528 503.0208 185.6c-115.51488-103.93344-293.73824-101.62304-405.29408 8.8512-114.944 113.8048-114.944 298.29888 0 412.1344 32.85376 32.52352 339.58656 336.19328 339.58656 336.19328 36.33408 35.9744 95.1104 35.9744 131.44704 0 0 0 335.86176-332.50432 339.584-336.19328C1023.2896 492.75008 1023.2896 308.256 908.3456 194.4512zM864.50944 563.19872 524.92416 899.39328c-12.06144 11.97056-31.74272 11.97056-43.77472 0L141.56416 563.19872c-90.64192-89.71136-90.64192-235.68128 0-325.39264 87.37152-86.50112 227.84896-89.53088 319.81184-6.8096l41.64608 37.47456 41.6768-37.47456c91.96288-82.72128 232.46976-79.69024 319.81312 6.8096C955.15008 327.51744 955.15008 473.48736 864.50944 563.19872z" />
<path class="svgpath" data-index="path_1" fill="#272636" d="M295.69408 263.15904c-0.05888 0-0.05888 0.03072-0.12032 0.03072-72.03968 0.06016-130.45632 58.4768-130.45632 130.5472l0 0c0 8.49024 6.87104 15.36256 15.36128 15.36256 8.49152 0 15.36128-6.87232 15.36128-15.36256l0-0.02944c0-55.11808 44.70528-99.82336 99.82336-99.82336l0.02944 0c8.49024 0 15.36256-6.87104 15.36256-15.36256C311.05664 270.03008 304.18432 263.15904 295.69408 263.15904z" />

</svg>
