<?xml version="1.0" encoding="utf-8"?>
<!DOCTYPE svg PUBLIC "-//W3C//DTD SVG 1.1//EN" "http://www.w3.org/Graphics/SVG/1.1/DTD/svg11.dtd">
<svg style="width:308px;height:308px;" version="1.1" id="图形" xmlns="http://www.w3.org/2000/svg" xmlns:xlink="http://www.w3.org/1999/xlink" x="0px" y="0px" width="1000px" height="1000px" viewBox="0 0 1000 1000" enable-background="new 0 0 1000 1000" xml:space="preserve">
  <path class="svgpath" data-index="path_0" fill="#272636" d="M954.6563 189.9063c-33.1875-9.4688-67.7813 9.75-77.2813 42.9375l-4.9063 17.1563h-582.9375l-8.7813-70.25c-3.9063-31.2812-30.5-54.75-62.0313-54.75h-156.25c-34.5313 0-62.5 27.9688-62.5 62.5s27.9688 62.5 62.5 62.5h101.0625l55.6563 445.25c3.9063 31.2812 30.5 54.75 62.0313 54.75h531.25c27.9063 0 52.4375-18.5 60.0938-45.3438l125-437.5c9.4688-33.1875-9.75-67.7813-42.9375-77.2813zM500 500v-62.5h125v62.5h-125zM625 562.5v62.5h-125v-62.5h125zM500 375v-62.5h125v62.5h-125zM297.375 312.5h140.125v62.5h-132.3125l-7.8125-62.5zM313 437.5h124.5v62.5h-116.6875l-7.8125-62.5zM328.625 562.5h108.875v62.5h-101.0625l-7.8125-62.5zM765.3438 625h-77.84375v-62.5h95.71875l-17.8438 62.5zM801.0625 500h-113.5625v-62.5h131.4375l-17.8438 62.5zM836.7813 375h-149.28125v-62.5h167.15625l-17.8438 62.5zM250 906.25c0-51.7813 41.9688-93.75 93.75-93.75s93.75 41.9688 93.75 93.75c0 51.7813-41.9688 93.75-93.75 93.75-51.7813 0-93.75-41.9688-93.75-93.75zM625 906.25c0-51.7813 41.9688-93.75 93.75-93.75s93.75 41.9688 93.75 93.75c0 51.7813-41.9688 93.75-93.75 93.75-51.7813 0-93.75-41.9688-93.75-93.75z" />

</svg>
