<?xml version="1.0" encoding="utf-8"?>
<!DOCTYPE svg PUBLIC "-//W3C//DTD SVG 1.1//EN" "http://www.w3.org/Graphics/SVG/1.1/DTD/svg11.dtd">
<svg style="width:308px;height:308px;" version="1.1" id="图形" xmlns="http://www.w3.org/2000/svg" xmlns:xlink="http://www.w3.org/1999/xlink" x="0px" y="0px" width="1024px" height="1024px" viewBox="0 0 1024 1024" enable-background="new 0 0 1024 1024" xml:space="preserve">
  <path class="svgpath" data-index="path_0" fill="#000000" d="M942.904007 822.618457l-161.254637-161.290453c-20.338211-20.340257-51.048653-24.066115-75.197656-11.1919l-30.205952-30.216185c46.251394-58.443064 73.870428-132.307352 73.870428-212.636888 0-189.408861-153.506163-342.915024-342.914-342.915024-189.408861 0-342.915024 153.507186-342.915024 342.915024 0 189.407837 153.507186 342.914 342.915024 342.914 80.322373 0 154.181545-27.615964 212.622562-73.860195l30.222325 30.202882c-12.862959 24.131607-9.130961 54.79293 11.234879 75.157747l161.253614 161.28636c24.914436 24.948205 65.319681 24.948205 90.267886 0l30.099529-30.064736C967.818443 887.971907 967.818443 847.530846 942.904007 822.618457zM127.699404 407.284053c0-154.395416 125.108393-279.472086 279.503808-279.472086 154.393369 0 279.503808 125.077693 279.503808 279.472086 0 154.394393-125.109416 279.472086-279.503808 279.472086C252.807796 686.755116 127.699404 561.677423 127.699404 407.284053z" />

</svg>
